<svg width="80" height="80" viewBox="0 0 80 80" fill="none" xmlns="http://www.w3.org/2000/svg">
<rect x="1" y="1" width="78" height="78" rx="9" fill="white" stroke="#B6B6B6" stroke-width="2"/>
<path d="M40 20C28.954 20 20 28.954 20 40C20 51.046 28.954 60 40 60C51.046 60 60 51.046 60 40C60 28.954 51.046 20 40 20ZM40 22.898C44.357 22.898 48.334 24.528 51.354 27.21C49.135 30.137 45.764 32.086 42.386 33.405C40.4737 29.9223 38.3306 26.5715 35.971 23.375C37.2907 23.0569 38.6435 22.8968 40.001 22.898H40ZM32.724 24.518C34.954 27.854 37.114 30.947 39.087 34.448C34.097 35.741 28.458 36.517 23.249 36.53C24.347 31.202 27.926 26.778 32.724 24.519V24.518ZM53.251 29.188C55.7223 32.208 57.0817 35.9848 57.102 39.887C53.146 39.107 49.212 38.903 45.206 39.307C44.756 38.184 44.21 37.117 43.687 35.967C47.14 34.574 50.832 32.19 53.251 29.187V29.188ZM40.476 37.094C40.904 38.004 41.4 38.97 41.866 39.957C36.296 42.413 30.371 45.695 27.296 51.449C24.344 48.1823 22.7708 43.8999 22.906 39.499C28.871 39.471 34.726 38.725 40.476 37.094ZM49.514 41.757C52.0028 41.7575 54.4813 42.0768 56.889 42.707C56.5178 45.0232 55.6739 47.2383 54.41 49.2145C53.1461 51.1907 51.489 52.8856 49.542 54.194C48.624 50.019 47.749 46.024 46.202 41.996C47.2984 41.8362 48.405 41.756 49.513 41.756L49.514 41.757ZM56.978 42.067C56.966 42.165 56.955 42.261 56.941 42.357C56.955 42.26 56.967 42.164 56.978 42.067ZM43.038 42.777C44.614 46.85 45.851 51.36 46.681 55.749C44.5682 56.6455 42.2961 57.106 40.001 57.103C36.1988 57.1084 32.5043 55.8411 29.506 53.503C32.603 48.479 37.4 44.677 43.037 42.778L43.038 42.777Z" fill="black"/>
</svg>
