<svg width="80" height="80" viewBox="0 0 80 80" fill="none" xmlns="http://www.w3.org/2000/svg">
<rect x="1" y="1" width="78" height="78" rx="9" fill="white" stroke="#B6B6B6" stroke-width="2"/>
<path d="M32.405 28.9166C33.47 28.9166 34.455 29 35.355 29.2466C36.1717 29.3967 36.9513 29.7047 37.65 30.1533C38.3067 30.565 38.7983 31.1433 39.125 31.885C39.4533 32.6266 39.6167 33.535 39.6167 34.5233C39.6167 35.6783 39.3717 36.6666 38.7983 37.4083C38.3067 38.1516 37.4867 38.81 36.5033 39.305C37.8967 39.7183 38.9617 40.46 39.6167 41.4483C40.2733 42.4383 40.6833 43.675 40.6833 45.0766C40.6833 46.2316 40.4367 47.22 40.0267 48.045C39.6167 48.87 38.9617 49.6116 38.2233 50.1066C37.4213 50.6372 36.5347 51.0273 35.6017 51.26C34.6183 51.5083 33.635 51.6733 32.6517 51.6733H21.6667V28.9166H32.405ZM31.7483 38.15C32.65 38.15 33.3883 37.9033 33.9617 37.4916C34.535 37.08 34.7817 36.3366 34.7817 35.43C34.7817 34.935 34.6983 34.44 34.535 34.1116C34.3717 33.7816 34.125 33.5333 33.7983 33.2866C33.47 33.1216 33.1417 32.9566 32.7317 32.875C32.3217 32.7916 31.9133 32.7916 31.42 32.7916H26.6667V38.1516H31.75L31.7483 38.15ZM31.995 47.88C32.4867 47.88 32.9783 47.7966 33.3883 47.715C33.8023 47.6362 34.1938 47.4672 34.535 47.22C34.869 46.9787 35.1484 46.6698 35.355 46.3133C35.5183 45.9016 35.6833 45.4066 35.6833 44.83C35.6833 43.675 35.355 42.85 34.7 42.2733C34.0433 41.7783 33.1417 41.5316 32.0767 41.5316H26.6667V47.8816H31.995V47.88ZM47.815 47.7966C48.47 48.4566 49.4533 48.7866 50.765 48.7866C51.6667 48.7866 52.4867 48.54 53.1417 48.1283C53.7983 47.6333 54.2083 47.1383 54.3717 46.6433H58.3883C57.7317 48.6216 56.7483 50.0233 55.4383 50.93C54.125 51.755 52.5683 52.25 50.6833 52.25C49.4773 52.2536 48.2814 52.0297 47.1583 51.59C46.1479 51.2109 45.2467 50.588 44.535 49.7766C43.7738 49.0176 43.2112 48.0829 42.8967 47.055C42.4867 45.9833 42.3217 44.83 42.3217 43.51C42.3217 42.2733 42.4867 41.12 42.8967 40.0466C43.2909 39.0134 43.8742 38.0628 44.6167 37.2433C45.355 36.5016 46.2567 35.8433 47.24 35.43C48.3345 34.9901 49.5037 34.766 50.6833 34.77C52.0767 34.77 53.3067 35.0183 54.3717 35.595C55.4383 36.1716 56.2567 36.8316 56.9133 37.8216C57.5832 38.7725 58.0823 39.8328 58.3883 40.955C58.5517 42.1083 58.6333 43.2633 58.5517 44.5816H46.6667C46.6667 45.9016 47.1583 47.1383 47.815 47.7983V47.7966ZM52.9783 39.14C52.405 38.5633 51.5033 38.2333 50.4367 38.2333C49.8112 38.2239 49.1927 38.3651 48.6333 38.645C48.1417 38.8933 47.815 39.2233 47.4867 39.5533C47.1849 39.8721 46.9853 40.2737 46.9133 40.7066C46.83 41.12 46.7483 41.4483 46.7483 41.7783H54.125C53.9617 40.5416 53.5517 39.7183 52.9783 39.14ZM45.765 30.4833H54.945V32.71H45.7667V30.4833H45.765Z" fill="black"/>
</svg>
