<svg width="80" height="80" viewBox="0 0 80 80" fill="none" xmlns="http://www.w3.org/2000/svg">
<rect x="1" y="1" width="78" height="78" rx="9" fill="white" stroke="#B6B6B6" stroke-width="2"/>
<path fill-rule="evenodd" clip-rule="evenodd" d="M32.4417 21.7766C34.3967 21.6866 35.02 21.6666 40 21.6666C44.98 21.6666 45.6033 21.6883 47.5567 21.7766C49.51 21.865 50.8433 22.1766 52.01 22.6283C53.2317 23.09 54.34 23.8116 55.2567 24.745C56.19 25.66 56.91 26.7666 57.37 27.99C57.8233 29.1566 58.1333 30.49 58.2233 32.44C58.3133 34.3983 58.3333 35.0216 58.3333 40C58.3333 44.98 58.3117 45.6033 58.2233 47.5583C58.135 49.5083 57.8233 50.8416 57.37 52.0083C56.91 53.2318 56.1888 54.3403 55.2567 55.2566C54.34 56.19 53.2317 56.91 52.01 57.37C50.8433 57.8233 49.51 58.1333 47.56 58.2233C45.6033 58.3133 44.98 58.3333 40 58.3333C35.02 58.3333 34.3967 58.3116 32.4417 58.2233C30.4917 58.135 29.1583 57.8233 27.9917 57.37C26.7682 56.9099 25.6597 56.1887 24.7433 55.2566C23.8106 54.3411 23.0889 53.2331 22.6283 52.01C22.1767 50.8433 21.8667 49.51 21.7767 47.56C21.6867 45.6016 21.6667 44.9783 21.6667 40C21.6667 35.02 21.6883 34.3966 21.7767 32.4433C21.865 30.49 22.1767 29.1566 22.6283 27.99C23.0895 26.7668 23.8119 25.6588 24.745 24.7433C25.6601 23.8108 26.7675 23.089 27.99 22.6283C29.1567 22.1766 30.49 21.8666 32.44 21.7766H32.4417ZM47.4083 25.0766C45.475 24.9883 44.895 24.97 40 24.97C35.105 24.97 34.525 24.9883 32.5917 25.0766C30.8033 25.1583 29.8333 25.4566 29.1867 25.7083C28.3317 26.0416 27.72 26.4366 27.0783 27.0783C26.4701 27.67 26.002 28.3904 25.7083 29.1866C25.4567 29.8333 25.1583 30.8033 25.0767 32.5916C24.9883 34.525 24.97 35.105 24.97 40C24.97 44.895 24.9883 45.475 25.0767 47.4083C25.1583 49.1966 25.4567 50.1666 25.7083 50.8133C26.0017 51.6083 26.47 52.33 27.0783 52.9216C27.67 53.53 28.3917 53.9983 29.1867 54.2916C29.8333 54.5433 30.8033 54.8416 32.5917 54.9233C34.525 55.0116 35.1033 55.03 40 55.03C44.8967 55.03 45.475 55.0116 47.4083 54.9233C49.1967 54.8416 50.1667 54.5433 50.8133 54.2916C51.6683 53.9583 52.28 53.5633 52.9217 52.9216C53.53 52.33 53.9983 51.6083 54.2917 50.8133C54.5433 50.1666 54.8417 49.1966 54.9233 47.4083C55.0117 45.475 55.03 44.895 55.03 40C55.03 35.105 55.0117 34.525 54.9233 32.5916C54.8417 30.8033 54.5433 29.8333 54.2917 29.1866C53.9583 28.3316 53.5633 27.72 52.9217 27.0783C52.3299 26.4701 51.6095 26.002 50.8133 25.7083C50.1667 25.4566 49.1967 25.1583 47.4083 25.0766ZM37.6583 45.6516C38.9661 46.196 40.4223 46.2695 41.7782 45.8595C43.1341 45.4495 44.3056 44.5815 45.0927 43.4037C45.8797 42.2259 46.2334 40.8114 46.0934 39.4018C45.9534 37.9922 45.3283 36.6749 44.325 35.675C43.6854 35.0358 42.912 34.5463 42.0606 34.2419C41.2091 33.9374 40.3007 33.8256 39.4008 33.9143C38.5009 34.0031 37.6319 34.2903 36.8563 34.7552C36.0808 35.2201 35.4179 35.8512 34.9155 36.603C34.4131 37.3549 34.0836 38.2088 33.9509 39.1032C33.8181 39.9977 33.8852 40.9104 34.1476 41.7758C34.4099 42.6412 34.8608 43.4376 35.4679 44.1078C36.0749 44.778 36.823 45.3053 37.6583 45.6516ZM33.3367 33.3366C34.2117 32.4616 35.2505 31.7675 36.3938 31.2939C37.5371 30.8203 38.7625 30.5766 40 30.5766C41.2375 30.5766 42.4629 30.8203 43.6062 31.2939C44.7495 31.7675 45.7883 32.4616 46.6633 33.3366C47.5384 34.2117 48.2325 35.2505 48.7061 36.3938C49.1796 37.5371 49.4234 38.7625 49.4234 40C49.4234 41.2375 49.1796 42.4628 48.7061 43.6061C48.2325 44.7494 47.5384 45.7882 46.6633 46.6633C44.8961 48.4305 42.4992 49.4233 40 49.4233C37.5008 49.4233 35.1039 48.4305 33.3367 46.6633C31.5694 44.8961 30.5766 42.4992 30.5766 40C30.5766 37.5007 31.5694 35.1039 33.3367 33.3366ZM51.5133 31.98C51.7302 31.7754 51.9038 31.5294 52.0238 31.2566C52.1439 30.9837 52.208 30.6896 52.2124 30.3915C52.2167 30.0934 52.1612 29.7975 52.0491 29.5213C51.9371 29.2451 51.7707 28.9941 51.5599 28.7834C51.3491 28.5726 51.0982 28.4062 50.822 28.2942C50.5457 28.1821 50.2498 28.1266 49.9518 28.1309C49.6537 28.1353 49.3596 28.1994 49.0867 28.3195C48.8139 28.4395 48.5679 28.6131 48.3633 28.83C47.9655 29.2517 47.7477 29.8118 47.7562 30.3915C47.7646 30.9712 47.9986 31.5248 48.4086 31.9347C48.8185 32.3446 49.3721 32.5787 49.9518 32.5871C50.5315 32.5956 51.0916 32.3778 51.5133 31.98Z" fill="black"/>
</svg>
