<svg width="80" height="80" viewBox="0 0 80 80" fill="none" xmlns="http://www.w3.org/2000/svg">
<rect x="1" y="1" width="78" height="78" rx="9" fill="white" stroke="#B6B6B6" stroke-width="2"/>
<g clip-path="url(#clip0_22_21)">
<path d="M30.335 55H23.0788V31.6325H30.335V55ZM26.7025 28.445C24.3825 28.445 22.5 26.5225 22.5 24.2025C22.5 23.0879 22.9428 22.019 23.7309 21.2309C24.519 20.4428 25.5879 20 26.7025 20C27.8171 20 28.886 20.4428 29.6741 21.2309C30.4622 22.019 30.905 23.0879 30.905 24.2025C30.905 26.5225 29.0225 28.445 26.7025 28.445ZM57.4925 55H50.2525V43.625C50.2525 40.9137 50.1975 37.4375 46.48 37.4375C42.7075 37.4375 42.1287 40.3825 42.1287 43.43V55H34.88V31.6325H41.8387V34.82H41.94C42.9087 32.9838 45.275 31.0462 48.805 31.0462C56.1487 31.0462 57.4987 35.8825 57.4987 42.1638V55H57.4925Z" fill="black"/>
</g>
<defs>
<clipPath id="clip0_22_21">
<rect width="40" height="40" fill="white" transform="translate(20 20)"/>
</clipPath>
</defs>
</svg>
